<svg width="300" height="36" viewBox="0 0 500 31" fill="none" xmlns="http://www.w3.org/2000/svg">
  <path d="M0 15.6462C0 6.68753 6.93986.041935 16.8231.041935c3.6174 0 7.8233 1.051825 9.4636 2.102975l.1677 5.00523-.4209.08418c-1.6396-3.8275-5.6348-6.39308-10.64-6.39308-6.68737 0-11.86095 4.45777-11.86095 13.03866-.04175 7.9068 4.75272 15.477 13.50125 15.477 4.542 0 8.0752-2.3973 9.7156-6.9392l.4626.0417-.6727 5.4672c-1.9771 1.0936-5.9729 2.272-10.6832 2.272C6.1823 30.1986 0 24.8149 0 15.6462ZM50.4315 29.1465c6.7298 0 10.0522-4.8786 9.8415-11.1875C59.9794 9.16869 54.4698.9676 46.9407.9676c-6.3924 0-10.1364 4.75203-9.8832 11.6077.2943 8.4543 5.8463 16.5712 13.374 16.5712ZM33.6926 15.015c0-8.62266 6.0564-15.0150534 14.9726-15.0150534 7.1082 0 14.8885 4.8793234 14.8885 15.1833534 0 10.3876-7.822 15.0151-14.8885 15.0151-7.1499 0-14.9726-4.7528-14.9726-15.1834ZM68.6885 29.2312c1.2619-.3791 1.6828-1.346 1.6828-4.7951V5.67842c0-3.44906-.4209-4.41671-1.6828-4.794465V.336487h6.8132v.547468c-1.3036.377755-1.6814 1.345405-1.6814 4.794465V27.2124c0 1.2195.6727 1.8922 1.8929 1.8922h5.0039c4.0382 0 5.888-1.01 7.3607-4.1641l.4626.0841-.2943 4.7527H68.6885v-.5461ZM94.0535 29.2312c1.2619-.3791 1.6814-1.346 1.6814-4.7951V5.67842c0-3.44906-.4195-4.41671-1.6814-4.794465V.336487h6.8135v.547468c-1.3039.377755-1.6831 1.345405-1.6831 4.794465V27.2124c0 1.2195.6727 1.8922 1.8931 1.8922h5.005c4.038 0 5.888-1.01 7.36-4.1641l.463.0841-.295 4.7527H94.0535v-.5461ZM119.417 29.2312c1.262-.3791 1.682-1.346 1.682-4.7951V5.67842c0-3.44906-.42-4.41671-1.682-4.794465V.336487h19.557l.463 5.467853-.463.12592c-1.472-3.7009-3.954-4.962815-8.243-4.962815h-6.183V13.7119h5.384c4.794 0 6.014-.9684 6.519-2.8613h.505v6.3521h-.505c-.505-1.8929-1.725-2.8599-6.519-2.8599h-5.384v12.9114c0 1.2195.673 1.8922 1.893 1.8922h5.468c4.037 0 6.602-1.1353 8.117-5.047l.463.0849-.337 5.593h-20.735v-.5461ZM145.917 15.6462c0-8.95867 6.94-15.604265 16.823-15.604265 3.617 0 7.823 1.051825 9.464 2.102975l.167 5.00523-.421.08418c-1.639-3.8275-5.634-6.39308-10.64-6.39308-6.687 0-11.861 4.45777-11.861 13.03866-.041 7.9068 4.753 15.477 13.502 15.477 4.542 0 8.075-2.3973 9.715-6.9392l.463.0417-.673 5.4672c-1.977 1.0936-5.973 2.272-10.683 2.272-9.674 0-15.856-5.3837-15.856-14.5524ZM186.633 29.2312c1.304-.3791 1.683-1.346 1.683-4.7951V1.00919h-2.061c-3.785 0-5.426 1.01008-6.856 4.03827l-.462-.08486.252-4.626113h21.66l.252 4.626113-.462.08486c-1.43-3.02819-3.071-4.03827-6.856-4.03827h-1.976V24.4361c0 3.4491.378 4.416 1.681 4.7951v.5461h-6.855v-.5461ZM220.745 29.1465c6.73 0 10.052-4.8786 9.842-11.1875-.294-8.79031-5.804-16.9914-13.333-16.9914-6.392 0-10.136 4.75203-9.883 11.6077.294 8.4543 5.846 16.5712 13.374 16.5712ZM204.006 15.015c0-8.62266 6.057-15.0150534 14.973-15.0150534 7.108 0 14.888 4.8793234 14.888 15.1833534 0 10.3876-7.822 15.0151-14.888 15.0151-7.15 0-14.973-4.7528-14.973-15.1834Z"
    fill="white" />
</svg>
